<svg xmlns="http://www.w3.org/2000/svg" viewBox="0 0 500 500"><path fill="#03234b" d="M475 243.196v-45.221l-3.452-3.499C440.81 163.298 287.49 93.395 249.999 93.395c-37.489 0-190.809 69.903-221.547 101.082L25 197.975v45.221c0 9.878 5.185 19.084 13.408 24.342l-7.443 11.531 6.888 3.306 3.584 49.984 11.252 5.399 4.453-46.126 6.888 3.305 7.528-11.662 14.863 6.911-7.637 11.831 6.888 3.307 3.583 49.983 11.252 5.399 4.453-46.126 6.889 3.306 7.882-12.211 14.863 6.911-7.991 12.38 6.889 3.306 3.584 49.983 11.251 5.4 4.453-46.126 6.889 3.305 8.236-12.76 14.863 6.911-8.346 12.93 6.889 3.306 3.584 49.984 11.251 5.399 4.453-46.126 6.888 3.305 8.59-13.309 33.925 15.775 33.878-15.753 8.577 13.287 6.888-3.305 4.453 46.126 11.252-5.399 3.583-49.984 6.888-3.306-8.331-12.908 14.863-6.911 8.222 12.738 6.888-3.305 4.453 46.126 11.251-5.4 3.584-49.983 6.888-3.306-7.977-12.358 14.863-6.911 7.868 12.189 6.889-3.306 4.453 46.126 11.251-5.399 3.584-49.983 6.889-3.307-7.623-11.809 14.863-6.911 7.513 11.64 6.889-3.305 4.453 46.126 11.251-5.399 3.584-49.984 6.888-3.306-7.426-11.505c8.244-5.253 13.449-14.473 13.449-24.368zM51.633 220.805c-1.55-.75-2.639-2.492-2.639-4.358v-8.271C81.977 180.668 220.945 117.387 250 117.387c29.055 0 168.024 63.281 201.007 90.789v8.271c0 1.866-1.089 3.608-2.639 4.358L250 313.944 51.633 220.805z"/></svg>