<svg xmlns="http://www.w3.org/2000/svg" viewBox="0 0 500 500"><g fill="#03234b"><path d="M370.27 91.029H129.73c-21.34 0-38.701 17.361-38.701 38.701v240.54c0 21.34 17.361 38.701 38.701 38.701h240.54c21.34 0 38.701-17.361 38.701-38.701V129.729c0-21.339-17.361-38.7-38.701-38.7zM262.52 391.58h-9.072V265.83a5.425 5.425 0 0 0-5.425-5.425h-24.46c-.639-3.093-1.822-5.981-3.403-8.603-1.104-1.884-2.352-3.589-4.707-5.576-2.925-2.468-5.938-4.88-9.535-6.187a27.591 27.591 0 0 0-12.031-1.522c-13.443 1.259-24.167 12.428-24.918 25.909-.888 15.932 11.819 29.177 27.562 29.177 7.178 0 13.705-2.777 18.62-7.285a11.147 11.147 0 0 0 4.238-4.862 27.474 27.474 0 0 0 4.231-10.202h18.98V391.58h-8.371v-58.354a5.425 5.425 0 0 0-5.425-5.425h-34.885c-2.704-13.536-15.331-23.535-29.949-22.043-13.345 1.362-23.945 12.52-24.678 25.915-.871 15.919 11.83 29.148 27.563 29.148 6.764 0 12.959-2.455 17.765-6.508a11.165 11.165 0 0 0 3.366-3.37 27.512 27.512 0 0 0 5.93-12.293h29.463v52.93h-93.65c-11.769 0-21.309-9.541-21.309-21.309V222.447h154.1V391.58zm-47.924-125.583c0 9.962-8.104 18.067-18.066 18.067s-18.067-8.105-18.067-18.067 8.105-18.067 18.067-18.067 18.066 8.105 18.066 18.067zm-29.675 67.219c0 9.962-8.104 18.066-18.066 18.066s-18.067-8.104-18.067-18.066 8.105-18.067 18.067-18.067c9.963 0 18.066 8.105 18.066 18.067zm206.658 37.054c0 11.769-9.541 21.31-21.31 21.31h-76.833v-87.999h38.008c2.076 13.181 13.48 23.304 27.236 23.304 15.22 0 27.604-12.383 27.604-27.605 0-15.222-12.384-27.605-27.604-27.605-6.827 0-13.072 2.505-17.896 6.626a11.143 11.143 0 0 0-3.11 3.112 27.507 27.507 0 0 0-5.782 11.318h-43.881a5.424 5.424 0 0 0-5.424 5.424v93.423h-9.218V217.023a5.424 5.424 0 0 0-5.424-5.424H108.421V129.73c0-11.769 9.54-21.309 21.309-21.309h111.733v57.366h-35.728c-.979-6.292-4.078-12.002-8.891-16.298-5.502-4.909-12.593-7.38-19.947-6.964-7.362.418-14.121 3.679-19.03 9.18-4.909 5.501-7.383 12.585-6.964 19.947.834 14.665 13.033 26.038 27.544 26.038.525 0 1.054-.015 1.585-.045 12.396-.705 22.433-9.532 25.244-21.01h41.612a5.425 5.425 0 0 0 5.425-5.425v-62.79h62.789v100.042a27.463 27.463 0 0 0-10.213 4.613 11.12 11.12 0 0 0-5.666 5.5c-3.603 4.664-5.771 10.491-5.771 16.826 0 15.222 12.384 27.605 27.606 27.605 15.22 0 27.604-12.383 27.604-27.605 0-7.622-3.106-14.531-8.117-19.531a11.057 11.057 0 0 0-1.672-1.519 27.488 27.488 0 0 0-12.922-6.094V108.42h44.32c11.769 0 21.309 9.541 21.309 21.309V370.27zm-50.966-70.989c0-9.962 8.105-18.066 18.067-18.066s18.066 8.104 18.066 18.066-8.104 18.067-18.066 18.067c-9.961 0-18.067-8.105-18.067-18.067zM179.489 188.123c-9.94.551-18.499-7.066-19.064-17.012a17.95 17.95 0 0 1 4.558-13.055 17.954 17.954 0 0 1 12.455-6.008c4.8-.286 9.453 1.344 13.055 4.557a17.95 17.95 0 0 1 6.008 12.455c.565 9.945-7.067 18.497-17.012 19.063zm141.568 29.213c9.962 0 18.066 8.105 18.066 18.067s-8.104 18.067-18.066 18.067-18.067-8.105-18.067-18.067 8.105-18.067 18.067-18.067zM409.082 325.836H475v28.28h-65.918zM409.082 265.852H475v28.28h-65.918zM409.082 205.859h65.917v28.28h-65.917zM409.082 145.875H475v28.28h-65.918zM25 325.836h65.917v28.28H25zM25 265.852h65.917v28.28H25zM25 205.859h65.917v28.28H25zM25 145.875h65.917v28.28H25zM145.879 409.083h28.279v65.921h-28.279zM205.868 409.083h28.28v65.913h-28.28zM265.857 409.083h28.279v65.922h-28.279zM325.843 409.083h28.28v65.913h-28.28zM145.879 24.996h28.279v65.921h-28.279zM205.868 25.005h28.28v65.912h-28.28zM265.857 24.995h28.279v65.922h-28.279zM325.843 24.995h28.28v65.922h-28.28z"/></g></svg>