<svg xmlns="http://www.w3.org/2000/svg" viewBox="0 0 500 500"><g fill="#03234b"><path d="M408.218 325.424h65.559v28.126h-65.559zM408.218 265.766h65.559v28.126h-65.559zM408.218 206.099h65.559v28.126h-65.559zM408.218 146.441h65.559v28.126h-65.559zM26.223 325.424h65.559v28.126H26.223zM26.223 265.766h65.559v28.126H26.223zM26.223 206.099h65.559v28.126H26.223zM26.223 146.441h65.559v28.126H26.223zM146.445 408.219h28.126v65.563h-28.126zM206.107 408.219h28.127v65.555h-28.127zM265.771 408.219h28.126v65.564h-28.126zM325.431 408.219h28.126v65.555h-28.126zM146.445 26.219h28.126v65.563h-28.126zM206.107 26.227h28.127v65.554h-28.127zM265.771 26.218h28.126v65.564h-28.126zM325.431 26.218h28.126v65.564h-28.126zM114.305 113.746h271.797v271.795H114.305z"/></g></svg>